<?xml version="1.0" standalone="no"?>
<!DOCTYPE svg PUBLIC "-//W3C//DTD SVG 20010904//EN"
 "http://www.w3.org/TR/2001/REC-SVG-20010904/DTD/svg10.dtd">
<svg version="1.0" xmlns="http://www.w3.org/2000/svg"
 width="500.000000pt" height="500.000000pt" viewBox="0 0 500.000000 500.000000"
 preserveAspectRatio="xMidYMid meet">
<metadata>
Created by potrace 1.11, written by Peter Selinger 2001-2013
</metadata>
<g transform="translate(0.000000,500.000000) scale(0.100000,-0.100000)"
fill="#000000" stroke="none">
<path d="M1417 4984 c-30 -9 -62 -30 -87 -55 -32 -33 -42 -53 -56 -116 -14
-66 -16 -120 -11 -417 3 -187 11 -379 17 -426 15 -123 57 -317 85 -402 32 -92
111 -253 169 -340 l44 -68 -26 0 c-45 0 -130 -27 -159 -50 -65 -50 -95 -143
-74 -226 16 -63 44 -98 121 -149 92 -61 128 -102 156 -179 24 -67 24 -67 24
-496 0 -237 -4 -430 -8 -430 -4 0 -13 5 -19 11 -5 5 -34 16 -64 24 -41 11 -63
12 -99 3 -101 -24 -149 -83 -176 -218 -18 -86 -19 -89 -49 -94 -39 -8 -145
-84 -178 -128 -87 -117 -31 -276 125 -358 33 -17 51 -34 58 -54 17 -50 80
-132 123 -163 77 -54 185 -61 254 -16 29 19 30 5 4 -45 -20 -40 -94 -108 -206
-190 -82 -59 -109 -96 -125 -172 -16 -75 -2 -124 53 -184 l43 -46 1040 0 1039
1 79 33 c175 73 341 237 412 405 87 210 114 389 89 620 -18 174 -33 235 -87
360 -46 103 -96 184 -157 248 l-39 42 29 55 c43 80 68 157 89 286 40 233 16
479 -61 637 -71 146 -195 269 -347 345 -42 21 -59 34 -53 42 264 324 371 682
371 1235 0 172 -23 431 -45 515 -26 97 -70 143 -159 165 -38 9 -61 9 -105 -1
-51 -11 -64 -20 -147 -103 -204 -203 -453 -535 -558 -743 -55 -109 -74 -164
-111 -312 -46 -186 -85 -467 -85 -617 0 -38 -4 -53 -13 -53 -11 0 -16 28 -21
113 -18 308 -99 649 -198 840 -101 194 -273 419 -493 645 -175 180 -216 213
-287 230 -57 14 -61 14 -121 -4z m155 -110 c52 -34 277 -261 371 -375 157
-190 274 -369 334 -513 76 -178 139 -502 150 -768 l6 -148 104 0 103 0 0 93
c1 160 32 432 71 602 47 210 107 346 238 541 169 253 451 575 519 594 75 20
141 -19 160 -95 40 -154 51 -750 18 -940 -51 -300 -143 -515 -321 -751 -36
-47 -65 -87 -65 -89 0 -2 17 -9 38 -15 58 -19 177 -85 242 -135 75 -57 118
-111 163 -201 50 -99 67 -185 74 -359 5 -131 3 -165 -16 -258 -24 -115 -52
-198 -103 -302 l-31 -65 64 -68 c142 -147 219 -333 241 -582 13 -151 1 -283
-41 -428 -68 -237 -188 -386 -390 -485 l-106 -52 -994 0 -994 0 -29 36 c-23
29 -30 47 -30 82 0 25 5 54 11 66 6 11 53 51 104 89 185 139 229 199 242 332
l7 75 -60 15 -59 16 -11 -26 c-16 -34 -66 -63 -112 -63 -73 0 -152 75 -181
171 -11 38 -19 46 -75 73 -109 54 -154 118 -133 193 17 62 118 134 212 151 36
7 37 8 37 52 0 61 28 178 48 203 26 32 87 49 134 37 72 -18 178 -152 178 -227
0 -15 4 -20 9 -15 6 6 11 243 12 585 1 573 1 575 -21 640 -45 129 -74 166
-197 249 -55 38 -71 54 -83 89 -13 37 -13 47 0 84 24 68 59 82 212 86 l128 4
-41 56 c-276 380 -345 627 -356 1262 -7 411 4 477 88 507 43 15 83 8 131 -23z"/>
<path d="M1453 4860 c-12 -5 -30 -21 -40 -37 -16 -24 -18 -57 -21 -287 -6
-425 25 -723 96 -921 52 -148 167 -350 295 -520 l46 -60 -171 -5 -170 -5 -24
-28 c-14 -17 -24 -41 -24 -59 0 -34 20 -55 130 -136 36 -26 80 -69 97 -95 35
-52 84 -192 85 -242 1 -16 0 -290 -1 -609 l-2 -578 -31 6 c-17 3 -37 6 -44 6
-8 0 -14 10 -14 23 -2 59 -59 160 -117 204 -41 31 -97 33 -125 5 -38 -37 -61
-197 -38 -257 10 -26 9 -26 -20 -20 -50 11 -107 -5 -169 -46 -72 -48 -89 -84
-65 -135 17 -36 105 -98 155 -109 23 -5 29 -14 39 -55 15 -61 71 -137 116
-156 29 -12 39 -12 67 0 35 14 64 63 54 90 -5 12 5 10 41 -6 26 -11 68 -21 94
-22 57 -1 62 -12 52 -124 -14 -161 -53 -215 -272 -378 -40 -30 -77 -65 -81
-77 -12 -31 -3 -72 21 -94 19 -17 69 -18 950 -21 1042 -3 986 -6 1132 71 126
67 239 184 305 315 30 58 58 178 77 318 20 153 2 331 -48 484 -50 154 -128
264 -250 354 l-37 28 35 46 c85 112 139 278 154 473 13 184 -7 311 -72 448
-73 153 -234 285 -411 336 -65 19 -65 12 9 105 132 166 265 415 308 580 54
203 61 272 59 595 -1 308 -18 522 -45 564 -17 28 -59 44 -92 35 -44 -11 -248
-233 -396 -429 -158 -211 -249 -370 -299 -523 -61 -184 -111 -536 -111 -773
l0 -109 -139 0 -138 0 -7 46 c-3 26 -6 73 -6 106 0 163 -54 504 -106 670 -49
156 -168 365 -309 543 -150 188 -401 443 -460 465 -31 12 -33 12 -62 0z m1987
-163 l-64 -62 59 65 c33 36 62 64 65 62 2 -1 -25 -31 -60 -65z m67 -9 c-3 -7
-5 -2 -5 12 0 14 2 19 5 13 2 -7 2 -19 0 -25z m10 -110 c-2 -18 -4 -6 -4 27 0
33 2 48 4 33 2 -15 2 -42 0 -60z m-188 -8 c-29 -33 -54 -60 -57 -60 -6 0 19
30 67 83 54 58 48 44 -10 -23z m198 -152 c-2 -24 -4 -7 -4 37 0 44 2 63 4 43
2 -21 2 -57 0 -80z m-525 -2136 c41 -46 52 -96 38 -172 -9 -50 -22 -75 -45
-92 -5 -4 -121 -8 -257 -8 l-248 0 0 155 0 155 239 0 239 0 34 -38z m12 -1158
c53 -49 71 -137 45 -215 -24 -71 -14 -69 -296 -69 l-253 0 0 155 0 155 238 0
237 0 29 -26z"/>
</g>
</svg>
